<svg width="40" height="39" viewBox="0 0 40 39" fill="none" xmlns="http://www.w3.org/2000/svg">
<g clip-path="url(#clip0_657_557)">
<path d="M20 26.5623L35.5 17.5311L20 8.5L4.5 17.5311L20 26.5623ZM20 26.5623L30.6073 20.3818C31.5419 22.8534 32.0556 25.548 32.0556 28.3684C32.0556 29.6352 31.9519 30.8765 31.7531 32.0837C27.258 32.5421 23.1845 34.5109 20 37.5C16.8155 34.5109 12.7421 32.5421 8.2469 32.0837C8.04806 30.8765 7.94444 29.6351 7.94444 28.3683C7.94444 25.5479 8.45809 22.8533 9.39262 20.3818L20 26.5623ZM13.1111 37.3996V23.853L20 19.8391" stroke="white" stroke-width="3" stroke-linecap="round" stroke-linejoin="round"/>
</g>
<defs>
<clipPath id="clip0_657_557">
<rect width="40" height="39" rx="10" fill="white"/>
</clipPath>
</defs>
</svg>
