<svg width="39" height="52" viewBox="0 0 39 52" fill="none" xmlns="http://www.w3.org/2000/svg">
<path d="M13.3 18.5H7.1C6.27783 18.5 5.48933 18.8161 4.90797 19.3787C4.32661 19.9413 4 20.7044 4 21.5V36.5C4 37.2956 4.32661 38.0587 4.90797 38.6213C5.48933 39.1839 6.27783 39.5 7.1 39.5H31.9C32.7222 39.5 33.5107 39.1839 34.092 38.6213C34.6734 38.0587 35 37.2956 35 36.5V21.5C35 20.7044 34.6734 19.9413 34.092 19.3787C33.5107 18.8161 32.7222 18.5 31.9 18.5H25.7M13.3 18.5V13.4C13.3 13.1613 13.398 12.9324 13.5724 12.7636C13.7468 12.5948 13.9833 12.5 14.23 12.5H24.77C25.0167 12.5 25.2532 12.5948 25.4276 12.7636C25.602 12.9324 25.7 13.1613 25.7 13.4V18.5M13.3 18.5H25.7" stroke="white" stroke-width="4"/>
</svg>
