<svg width="40" height="39" viewBox="0 0 40 39" fill="none" xmlns="http://www.w3.org/2000/svg">
<path d="M26.6123 34.9739V32.6405C26.6123 31.4029 26.0855 30.2159 25.1478 29.3407C24.2102 28.4655 22.9384 27.9739 21.6123 27.9739H11.6123C10.2862 27.9739 9.01445 28.4655 8.07677 29.3407C7.13909 30.2159 6.6123 31.4029 6.6123 32.6405V34.9739" stroke="white" stroke-width="3" stroke-linecap="round" stroke-linejoin="round"/>
<path d="M16.6123 22.9739C19.3737 22.9739 21.6123 20.7353 21.6123 17.9739C21.6123 15.2125 19.3737 12.9739 16.6123 12.9739C13.8509 12.9739 11.6123 15.2125 11.6123 17.9739C11.6123 20.7353 13.8509 22.9739 16.6123 22.9739Z" stroke="white" stroke-width="3" stroke-linecap="round" stroke-linejoin="round"/>
<path d="M34.6123 34.9739V32.5889C34.6114 31.532 34.2181 30.5053 33.4941 29.67C32.7701 28.8347 31.7565 28.2381 30.6123 27.9739" stroke="white" stroke-width="3" stroke-linecap="round" stroke-linejoin="round"/>
<path d="M25.6123 12.9739C26.7565 13.2581 27.7707 13.9038 28.495 14.8091C29.2192 15.7144 29.6123 16.8279 29.6123 17.9739C29.6123 19.1199 29.2192 20.2333 28.495 21.1386C27.7707 22.0439 26.7565 22.6896 25.6123 22.9739" stroke="white" stroke-width="3" stroke-linecap="round" stroke-linejoin="round"/>
</svg>
