<?xml version="1.0" encoding="UTF-8"?>
<svg id="Layer_2" data-name="Layer 2" xmlns="http://www.w3.org/2000/svg" viewBox="0 0 353.74 339.53">
  <defs>
    <style>
      .cls-1 {
        fill: #c9c;
      }
    </style>
  </defs>
  <g id="Layer_1-2" data-name="Layer 1">
    <g>
      <path class="cls-1" d="M119.88,282.96l-42.06-.03c-11.72,0-21.15-9.5-21.15-21.1v-10.82c0-13.21,12.2-23.6,25.28-20.72l30.4,6.7c14.27,3.15,22.54,15.78,22.31,30.06-.13,8.49-5.2,15.91-14.78,15.91ZM120.14,268.77c1.2-8.54-2.68-16.06-10.33-17.76l-31.1-6.91c-4.24-.94-7.88,3.06-7.89,6.88l-.03,10.83c.23,3.74,3.06,6.99,7.07,6.99l42.28-.03Z"/>
      <path class="cls-1" d="M276.5,282.87l-42.97.06c-9.11.01-14.28-7.44-14.4-15.89-.19-13.89,7.65-26.69,21.63-29.81l31.09-6.94c13.09-2.92,25.29,7.48,25.28,20.72v10.86c-.02,10.99-8.83,20.99-20.63,21ZM276.44,268.76c3.88,0,6.52-3.87,6.54-6.87l.06-11.02c0-1.82-1.4-4.7-2.69-5.69-1.19-.91-4.57-1.65-6.1-1.3l-30.46,6.92c-7.95,1.8-11.47,10.26-10.05,18.01l42.71-.05Z"/>
      <path class="cls-1" d="M205.2,247.57h-56.59c-4.08,0-6.83-3.33-7.02-6.65-.21-3.76,2.64-7.48,7.02-7.48h56.59c4.08,0,6.83,3.32,7.01,6.65.2,3.75-2.63,7.48-7.01,7.48Z"/>
      <path class="cls-1" d="M198.14,275.86h-42.48c-4.04,0-6.82-3.33-7-6.64-.21-3.77,2.66-7.48,7-7.48h42.48c4.05,0,6.82,3.32,6.99,6.64.2,3.75-2.64,7.48-6.99,7.48Z"/>
      <path class="cls-1" d="M233.43,42.43h-113.05c-4.22,0-6.89-3.32-7.07-6.66-.21-3.75,2.56-7.48,7.07-7.48h113.05c4.23,0,6.89,3.31,7.06,6.66.19,3.74-2.55,7.48-7.06,7.48Z"/>
      <path class="cls-1" d="M226.37,311.25h-98.96s.03,13.35.03,13.35c.02,8.01-5.78,14.94-14.2,14.94h-42.45c-8.43,0-14.13-6.94-14.19-14.93l-.12-14.09c-16.53-3.81-28.1-17.62-28.11-34.68l-.04-113.04-6.24-.03c-12.03-.06-21.99-8.97-22.01-21.27L0,92.83c-.02-12.17,8.85-21.96,21.28-22.08l7.04-.06.08-35.39C28.44,15.83,44.06,0,63.81,0h226.18c19.76,0,35.36,15.82,35.41,35.3l.09,35.43,6.23-.06c11.96-.11,22.01,8.97,22.01,21.27v49.54c0,11.86-9.51,21.02-21.11,21.2l-7.17.11-.12,113.92c-.02,16.74-12.03,30.08-27.98,33.79l-.25,14.97c-.13,7.67-6.18,14.05-14.07,14.05h-42.51c-7.79,0-14.04-6.41-14.08-14.03l-.08-14.25ZM302.57,56.58c3.81,0,5.66.49,8.77.91l-.09-22.21c-.05-11.65-9.28-21.15-21.27-21.15H63.83c-12.56,0-21.44,10.07-21.39,22.04l.08,21.3c3.27-.45,5.7-.91,9.03-.91h251.01ZM64.16,198.07h105.67s0-127.34,0-127.34H49.66c-4.24.25-6.91,2.97-7.16,7.13v98.94c.27,11.98,9.15,21.13,21.66,21.27ZM311.31,176.42v-98.55c-.29-4.16-2.92-6.89-7.17-7.13h-120.17s0,127.33,0,127.33h106.05c12.02-.27,21.14-9.17,21.29-21.65ZM21.55,148.53l6.8-.05v-63.58s-8.06.12-8.06.12c-3.25.05-6.09,3.62-6.09,6.88v49.58c.02,3.9,3.2,7.08,7.35,7.05ZM339.61,141.11l-.02-49.18c0-3.87-3.22-7.02-6.97-7.02h-7.17s0,63.6,0,63.6l8.02-.13c3.38-.06,6.14-3.53,6.14-7.28ZM311.29,275.52l.02-70.14c-7.13,4.66-13.78,6.83-22.27,6.83H64.76c-8.51,0-15.14-2.19-22.28-6.84l.04,70.52c0,11.72,9.36,21.2,21.3,21.2h226.16c11.99,0,21.31-9.41,21.32-21.57ZM113.23,311.25h-42.44v14.15h42.44v-14.15ZM283.01,311.25h-42.44v14.15h42.44v-14.15Z"/>
    </g>
  </g>
</svg>