<?xml version="1.0" encoding="UTF-8"?>
<svg id="Layer_2" data-name="Layer 2" xmlns="http://www.w3.org/2000/svg" viewBox="0 0 384 301.66">
  <defs>
    <style>
      .cls-1 {
        fill: #c9c;
      }
    </style>
  </defs>
  <g id="Layer_1-2" data-name="Layer 1">
    <g>
      <path class="cls-1" d="M384,110.29v7.5c-2.48,8.96-8.67,16.05-18.93,17.4,10.28,17.04,16.11,35.59,17.62,55.34.43,5.59.72,10.64.25,16.13-1.22,14.34-3.75,28.37-10.68,41.1-2.17,3.99-4.69,7.1-8.54,9.48l.09,24.83c.04,10.78-7.79,19.47-18.82,19.5l-33.77.1c-9.68.03-18.22-6.52-18.38-16.73l-.29-17.62c-67.59,3.56-134.01,3.49-201.52.06l-.18,17.72c-.1,9.21-7.28,16.47-16.59,16.48l-36.05.04c-9.97.01-18.27-7.51-18.31-17.63l-.12-26.66C7.5,250.06,1.82,223.2.68,210.04c-.1-1.21-.33-2.53-.68-3v-16.5c.36-.48.58-1.77.68-3.03,1.58-18.74,7.62-36.22,17.83-52.28-9.76-1.62-16.12-8.44-18.51-17.44v-7.5c2.87-10.08,10.71-17.21,21.74-17.23l28.21-.06c9.42-19.5,20.63-46.35,34.74-61.39,4.35-4.63,9.48-6.78,15.83-6.94l53.19-1.38c-2.13-10.95,4.26-22.92,15.83-23L212.24,0c5.94-.04,10.93,2.97,14.04,6.85,3.78,4.72,4.17,10.29,3.78,16.51l52.68,1.3c6.37.16,11.63,2.06,16.11,6.65,14.64,15.01,26.13,42.12,35.86,61.68l26.03-.03c11.64-.01,20.25,6.5,23.27,17.33ZM216.87,23.29c.13-2.81.15-4.54-.05-6.85-.14-1.64-2.94-3.41-4.65-3.41h-40.46c-1.57-.01-4.57,1.34-4.83,2.84-.46,2.59-.45,4.83-.28,7.42h50.27ZM214.23,116.38c5.21-18.53,21.03-30.26,38.68-31.18,17.61-.92,33.89,9.28,41.06,25.82,11.1-1.45,21.33-3.12,32.13-5.48-6.88-14.98-13.72-29.07-21.35-43.42-4.21-7.14-8.4-13.81-13.55-20.18-2.76-3.04-5.65-4.24-10.11-4.37-59.74-1.73-119.15-1.73-178.87.02-4.42.13-7.15,1.51-9.86,4.62-5.89,7.69-11.05,15.68-15.29,24.56l-18.98,39.78c18.28,3.6,35.26,5.69,53.27,7.13,34.35,2.74,68.31,3.39,102.87,2.7ZM280.03,112.55c-6.25-10.69-16.91-15.25-28.15-14.18-9.91.94-19.69,7.34-23.63,17.66,17.32-.62,34.12-1.57,51.78-3.48ZM28.33,121.91c5.29-5.7,9.82-10.1,15.57-15.7l-22.62-.09c-4.74-.02-8.27,3.85-8.18,8.17s3.32,7.82,7.96,7.89c2.19.03,5.15-.08,7.26-.26ZM364.5,121.91c4.65-.68,6.76-5.16,6.35-8.66-.48-4.04-3.84-7.12-8.12-7.11l-21.33.04,14.53,15.79c2.41.23,5.76.35,8.57-.06ZM88.62,254.08c65.83,3.63,131.26,3.82,197.08.5,19.08-.96,37.16-2.44,55.87-5.25,5.41-.81,11.98-1.63,16.56-4.47,4.47-4.55,6.62-11.58,8.28-17.89,10.51-39.91-2.52-81.83-32.82-109.72-19.42,4.63-38.8,7.39-59.02,9.07-58.26,4.85-116.34,4.45-174.57-.46-16.97-1.78-33.1-3.9-49.48-7.55-34.12,28.85-46.28,75.35-30.79,116.96,1.41,3.78,3.41,6.91,5.58,10.29,16.26,5.52,45.36,7.53,63.29,8.52ZM74.53,288.55c1.6,0,3.41-2.1,3.39-3.39l-.2-18.7c-15.75-1.21-29.75-2.76-44.8-5.24l.02,23.16c0,2.05,2.68,4.17,4.61,4.17h36.99ZM345.38,288.57c2.8-.33,5.34-2.58,5.34-5.29l-.05-22.14c-15.47,2.57-29.45,4.05-44.82,5.29l-.08,18c0,1.92,2.07,4.12,4.03,4.13l35.58.02Z"/>
      <path class="cls-1" d="M260.1,208.02c-3.18,5.41-8.65,8.62-14.9,8.62h-106.39c-6.55.02-12.06-3.18-15.29-8.61l-10.9-18.36c-2.49-4.19-2.6-9.16,0-13.47,2.15-3.57,6.05-6.15,11.26-6.15h136.28c4.82.02,8.51,2.75,10.58,6.02,2.22,3.51,3.08,8.65.84,12.47l-11.47,19.48ZM244.76,203.63c2.16-.46,3.64-1.28,4.33-2.47l10.52-18.07H124s11,18.82,11,18.82c.46.78,2.65,1.52,3.81,1.72h105.95Z"/>
      <path class="cls-1" d="M94.6,189.97c0,16.55-13.42,29.96-29.96,29.96s-29.96-13.42-29.96-29.96,13.42-29.96,29.96-29.96,29.96,13.42,29.96,29.96ZM81.57,189.97c0-9.35-7.58-16.93-16.93-16.93s-16.93,7.58-16.93,16.93,7.58,16.93,16.93,16.93,16.93-7.58,16.93-16.93Z"/>
      <path class="cls-1" d="M348.82,189.97c0,16.55-13.42,29.96-29.96,29.96s-29.96-13.42-29.96-29.96,13.42-29.96,29.96-29.96,29.96,13.42,29.96,29.96ZM335.79,189.97c0-9.35-7.58-16.92-16.92-16.92s-16.92,7.58-16.92,16.92,7.58,16.92,16.92,16.92,16.92-7.58,16.92-16.92Z"/>
    </g>
  </g>
</svg>