<?xml version="1.0" encoding="UTF-8"?>
<svg id="Layer_2" data-name="Layer 2" xmlns="http://www.w3.org/2000/svg" viewBox="0 0 269.09 384.28">
  <defs>
    <style>
      .cls-1 {
        fill: #c9c;
      }
    </style>
  </defs>
  <g id="Layer_1-2" data-name="Layer 1">
    <g>
      <path class="cls-1" d="M229.9,360.01H39.3s-8.57,20.87-8.57,20.87c-1.26,3.08-4.88,4.14-7.61,2.84s-3.94-4.4-2.65-7.57l32.81-80.79-8.5-.28C19.49,294.26,0,274.88,0,249.61L.03,60.08c0-21.56,14.42-39.77,35.34-44.3l46.68-10.1c34.91-7.55,70.11-7.6,105.01-.03l46.69,10.13c20.87,4.53,35.34,22.75,35.34,44.29l-.03,190.34c0,24.62-19.6,43.94-43.78,44.63l-9.45.27,32.89,80.99c1.26,3.11-.36,6.31-2.7,7.39-3.29,1.51-6.59-.1-7.91-3.38l-8.19-20.32ZM224.8,283.67c18.6,0,32.91-15.14,32.92-33.22l.07-190.36c0-16.56-10.96-29.95-26.9-33.37l-48-10.3c-33.01-7.08-66.33-6.66-99.26.53l-46.64,10.18c-15.42,3.36-25.61,17.13-25.61,32.94l-.03,189.54c0,18.95,14.31,34.1,33.49,34.1l179.97-.05ZM208.95,309.06l-5.58-13.94-137.84.02-5.37,13.92h148.79ZM225.06,348.65l-11.26-28.23H55.35s-11.43,28.21-11.43,28.21l181.14.02Z"/>
      <path class="cls-1" d="M233.66,222.14c0,17.45-14.12,31.6-31.54,31.6s-31.54-14.15-31.54-31.6,14.12-31.6,31.54-31.6,31.54,14.15,31.54,31.6ZM222.32,222.14c0-11.17-9.04-20.23-20.19-20.23s-20.19,9.06-20.19,20.23,9.04,20.23,20.19,20.23,20.19-9.06,20.19-20.23Z"/>
      <path class="cls-1" d="M98.51,222.14c0,17.45-14.12,31.6-31.54,31.6s-31.54-14.15-31.54-31.6,14.12-31.6,31.54-31.6,31.54,14.15,31.54,31.6ZM87.17,222.14c0-11.17-9.04-20.23-20.19-20.23s-20.19,9.06-20.19,20.23,9.04,20.23,20.19,20.23,20.19-9.06,20.19-20.23Z"/>
      <path class="cls-1" d="M166.92,40.51h-64.74c-3.22,0-5.46-2.75-5.61-5.27-.18-3.02,2.06-6.07,5.62-6.07h64.74c3.22,0,5.46,2.74,5.6,5.27.17,3.01-2.04,6.07-5.61,6.07Z"/>
      <path class="cls-1" d="M239.95,57.34v95.85H29.16V57.34h210.78ZM228.62,68.71H40.49v73.12h188.12v-73.12Z"/>
    </g>
  </g>
</svg>