<svg width="1361" height="318" viewBox="0 0 1361 318" fill="none" xmlns="http://www.w3.org/2000/svg">
<path opacity="0.6" d="M210 414.6C150.8 414.6 101 395.4 60.6 357C20.2 318.6 2.50936e-05 268.6 2.50936e-05 207C2.50936e-05 145.4 20.2 95.5998 60.6 57.5998C101 19.1998 150.8 -0.000215054 210 -0.000215054C278.8 -0.000215054 332.6 27.7998 371.4 83.3998L313.8 115.8C302.6 100.2 287.8 87.3998 269.4 77.3998C251.4 67.3998 231.6 62.3998 210 62.3998C170.4 62.3998 137.4 75.9998 111 103.2C85 130.4 72 165 72 207C72 249 85 283.8 111 311.4C137.4 338.6 170.4 352.2 210 352.2C228.8 352.2 246.6 348.6 263.4 341.4C280.6 334.2 294.4 325.8 304.8 316.2V253.8H185.4V192H375V342C331.4 390.4 276.4 414.6 210 414.6ZM796.678 406.8H726.478V232.2H518.278V406.8H448.078V6.59977H518.278V170.4H726.478V6.59977H796.678V406.8ZM1073.67 414C1013.67 414 963.672 394.8 923.672 356.4C883.672 317.6 863.672 267.8 863.672 207C863.672 146.2 883.672 96.5998 923.672 58.1998C963.672 19.3998 1013.67 -0.000215054 1073.67 -0.000215054C1143.27 -0.000215054 1196.87 29.9998 1234.47 89.9998L1174.47 120.6C1164.47 103.4 1150.27 89.3998 1131.87 78.5998C1113.87 67.7998 1094.47 62.3998 1073.67 62.3998C1034.07 62.3998 1001.07 75.9998 974.672 103.2C948.672 130.4 935.672 165 935.672 207C935.672 249 948.672 283.6 974.672 310.8C1001.07 338 1034.07 351.6 1073.67 351.6C1094.87 351.6 1114.47 346.2 1132.47 335.4C1150.47 324.6 1164.47 310.6 1174.47 293.4L1234.47 324C1196.07 384 1142.47 414 1073.67 414ZM1360.86 406.8H1290.66V6.59977H1360.86V406.8Z" fill="white" fill-opacity="0.2"/>
</svg>
