<svg width="35" height="35" viewBox="0 0 35 35" fill="none" xmlns="http://www.w3.org/2000/svg">
<path d="M31.3441 12.3595C32.5203 15.5186 32.5801 18.985 31.5136 22.1828C30.4471 25.3806 28.3186 28.1172 25.4816 29.9379C22.6447 31.7586 19.2701 32.5538 15.9187 32.1913C12.5673 31.8289 9.44086 30.3306 7.05879 27.9454C4.383 25.2784 2.83125 21.6873 2.72288 17.9109C2.61451 14.1345 3.95775 10.4603 6.4762 7.64423C8.99465 4.82819 12.4967 3.0846 16.2617 2.77226C20.0267 2.45992 23.7682 3.6026 26.7162 5.96515L29.4643 3.21573C29.6169 3.06312 29.798 2.94206 29.9974 2.85947C30.1968 2.77688 30.4105 2.73437 30.6264 2.73437C30.8422 2.73437 31.0559 2.77688 31.2553 2.85947C31.4547 2.94206 31.6359 3.06312 31.7885 3.21573C31.9411 3.36834 32.0621 3.54952 32.1447 3.74891C32.2273 3.94831 32.2698 4.16202 32.2698 4.37784C32.2698 4.59366 32.2273 4.80737 32.1447 5.00677C32.0621 5.20616 31.9411 5.38734 31.7885 5.53995L18.6635 18.665C18.5109 18.8176 18.3297 18.9386 18.1303 19.0212C17.9309 19.1038 17.7172 19.1463 17.5014 19.1463C17.2855 19.1463 17.0718 19.1038 16.8724 19.0212C16.673 18.9386 16.4919 18.8176 16.3393 18.665C16.1867 18.5123 16.0656 18.3312 15.983 18.1318C15.9004 17.9324 15.8579 17.7187 15.8579 17.5028C15.8579 17.287 15.9004 17.0733 15.983 16.8739C16.0656 16.6745 16.1867 16.4933 16.3393 16.3407L19.6205 13.0595C18.6957 12.6176 17.6561 12.4755 16.6466 12.653C15.6372 12.8304 14.7083 13.3186 13.9896 14.0493C13.2709 14.78 12.7983 15.7169 12.6377 16.7291C12.477 17.7414 12.6364 18.7786 13.0936 19.6959C13.5507 20.6132 14.2829 21.3649 15.1878 21.8461C16.0927 22.3274 17.1253 22.5141 18.1414 22.3803C19.1576 22.2464 20.1066 21.7987 20.8561 21.0996C21.6055 20.4004 22.118 19.4848 22.3221 18.4804C22.408 18.0538 22.6599 17.6788 23.0223 17.4379C23.3847 17.197 23.828 17.11 24.2546 17.1959C24.6812 17.2818 25.0562 17.5337 25.2971 17.8961C25.538 18.2586 25.625 18.7018 25.5391 19.1284C25.1896 20.8499 24.2967 22.4138 22.9919 23.5899C21.687 24.7659 20.0391 25.492 18.2907 25.6614C16.5422 25.8307 14.7856 25.4343 13.2793 24.5305C11.773 23.6267 10.5966 22.2632 9.92332 20.6407C9.25 19.0183 9.11529 17.2225 9.53901 15.5178C9.96273 13.813 10.9225 12.2893 12.2771 11.1709C13.6317 10.0524 15.3095 9.39837 17.0636 9.30494C18.8178 9.21151 20.5556 9.68365 22.0213 10.6519L24.377 8.3044C22.1642 6.65182 19.4299 5.85199 16.6754 6.05151C13.9208 6.25102 11.3304 7.4365 9.37881 9.3907C7.42726 11.3449 6.24529 13.9369 6.04952 16.6918C5.85374 19.4466 6.65727 22.1798 8.31286 24.3903C9.96844 26.6009 12.3652 28.1408 15.0639 28.7278C17.7625 29.3149 20.5824 28.9097 23.0066 27.5867C25.4309 26.2636 27.2972 24.1113 28.2635 21.5241C29.2298 18.9368 29.2314 16.088 28.268 13.4997C28.1913 13.2974 28.1554 13.0818 28.1623 12.8655C28.1693 12.6492 28.219 12.4365 28.3085 12.2395C28.3981 12.0424 28.5257 11.8651 28.6841 11.7176C28.8424 11.5701 29.0284 11.4555 29.2313 11.3802C29.4342 11.3049 29.65 11.2705 29.8662 11.2789C30.0824 11.2874 30.2949 11.3385 30.4912 11.4294C30.6876 11.5203 30.8641 11.6492 31.0105 11.8086C31.1569 11.9679 31.2703 12.1547 31.3441 12.3581V12.3595Z" fill="#F2F2F2"/>
</svg>
